<mxfile host="app.diagrams.net" modified="2024-03-16T13:44:48.665Z" agent="Mozilla/5.0 (Macintosh; Intel Mac OS X 10_15_7) AppleWebKit/537.36 (KHTML, like Gecko) Chrome/121.0.0.0 Safari/537.36" version="24.0.7" etag="J1ssyCefLGpuSC2-t9RM" type="github">
  <diagram name="第 1 页" id="gbSbt70yss5AIN1fPwSI">
    <mxGraphModel>
      <root>
        <mxCell id="0" />
        <mxCell id="1" parent="0" />
      </root>
    </mxGraphModel>
  </diagram>
</mxfile>
